<svg xmlns="http://www.w3.org/2000/svg" xml:space="preserve" viewBox="0 0 1000 1000">
<style>
	@media (prefers-color-scheme: dark) {
		.a { fill: #f0f0f0 }
	}
</style>
	<path fill="#FFF" d="M1 119V1.011c333.285-.003 666.57-.003 999.927-.003v999.854H1c0-37.619 0-75.28.205-113.358.205-.415.623-.447.676.002 1.738 12.62 2.355 25.058 5.32 36.908 7.07 28.249 23.296 49.184 52.807 55.966 12.968 2.98 26.75 3.595 40.13 3.37 37.734-.635 66.105-22.188 78.19-57.96 5.176-15.317 7.162-31.13 7.194-47.168.142-71.998-.208-143.999.296-215.994.214-30.624 1.411-61.28 3.406-91.84 1.813-27.777 7.354-55.036 16.896-81.3 4.304-11.845 8.69-23.611 17.978-32.958 33.217-33.433 73.146-46.61 119.632-40.31 23.417 3.173 41.28 14.742 52.964 35.619 9.117 16.289 14.05 33.855 15.042 52.27 1.764 32.76 3.554 65.562 3.737 98.355.5 89.995.201 179.996.148 269.995-.01 17.392 1.021 34.666 6.437 51.302 11.335 34.822 34.648 55.893 71.661 59.38 15.17 1.428 30.627 1.375 45.847.373 35.68-2.35 59.792-21.053 72.15-54.502 5.585-15.118 7.413-31.014 7.416-47.099.022-112.165.158-224.33-.079-336.494-.042-19.799-1.706-39.592-2.474-59.394-.071-1.845.5-4 1.486-5.56 26.964-42.62 64.241-67.147 116.137-65.293 32.826 1.174 57.171 15.99 71.098 46.261 3.173 6.895 5.881 14.173 7.558 21.557 5.714 25.156 6.674 50.88 6.773 76.5.4 104.162.149 208.328.429 312.492.032 12.265.961 24.679 3.016 36.761 7.838 46.074 40.29 72.288 78.67 74.94 40.94 2.83 75.862-16.392 89.93-56.368 5.406-15.364 7.535-31.341 7.54-47.591.037-116.331.078-232.663.04-348.994-.011-32.358-2.072-64.54-8.052-96.437-10.746-57.313-42.223-99.22-93.397-126.567-27.063-14.463-56.225-21.823-86.614-24.941-30.72-3.153-61.188-2.164-91.373 4.724-44.531 10.16-82.05 32.89-115.006 63.912-8.21 7.729-16.78 15.075-25.186 22.596.648.774-.057-.121-.68-1.07-27.46-41.82-65.647-69.124-113.313-83.446-31.464-9.454-63.672-11.864-96.352-9.679-37.799 2.527-73.842 11.387-107.248 29.61-32.118 17.52-58.97 41.496-83.054 68.769-1.105 1.25-2.298 2.425-3.981 4.194v-6.472c0-82.5.237-165-.223-247.495-.081-14.526-1.779-29.332-5.015-43.486-6-26.24-20.944-46.21-46.628-56.54-15.429-6.206-31.608-7.457-48.108-5.595-28.538 3.22-49.546 17.177-61.979 43.296-7.942 16.684-10.289 34.63-11.424 52.83C1.413 118.92 1 119 1 119z"/>
  <path class="a" fill="#BCBCBC" d="M1 119.458c0-.458.413-.538.725-.063.3 252.88.287 505.284.267 757.69 0 3.324-.107 6.648-.164 9.972 0 0-.418.032-.623-.013C1 631.305 1 375.611 1 119.458z"/>
  <path d="M1.88 887.506c.005-3.773.112-7.097.112-10.422.02-252.405.032-504.81-.057-757.677.823-18.674 3.17-36.62 11.112-53.304C25.48 39.984 46.488 26.027 75.026 22.807c16.5-1.862 32.68-.611 48.108 5.595 25.684 10.33 40.628 30.3 46.628 56.54 3.236 14.154 4.934 28.96 5.015 43.486.46 82.496.223 164.996.223 247.495v6.472c1.683-1.77 2.876-2.943 3.98-4.194 24.086-27.273 50.937-51.249 83.055-68.77 33.406-18.222 69.45-27.082 107.248-29.609 32.68-2.185 64.888.225 96.352 9.68 47.666 14.32 85.854 41.625 113.313 83.445.623.949 1.328 1.844.68 1.07 8.405-7.521 16.975-14.867 25.186-22.596C637.77 320.4 675.289 297.67 719.82 287.51c30.185-6.888 60.653-7.877 91.373-4.724 30.389 3.118 59.551 10.478 86.614 24.941 51.174 27.348 82.65 69.254 93.397 126.567 5.98 31.896 8.041 64.08 8.052 96.437.038 116.331-.003 232.663-.04 348.994-.005 16.25-2.134 32.227-7.54 47.59-14.068 39.977-48.99 59.199-89.93 56.37-38.38-2.653-70.832-28.867-78.67-74.941-2.055-12.082-2.984-24.496-3.016-36.761-.28-104.164-.029-208.33-.43-312.493-.098-25.618-1.058-51.343-6.772-76.499-1.677-7.384-4.385-14.662-7.558-21.557-13.927-30.27-38.272-45.087-71.098-46.26-51.896-1.855-89.173 22.671-116.137 65.293-.987 1.56-1.557 3.714-1.486 5.56.768 19.8 2.432 39.594 2.474 59.393.237 112.164.1 224.33.08 336.494-.004 16.085-1.832 31.981-7.418 47.1-12.357 33.448-36.469 52.151-72.15 54.501-15.219 1.002-30.676 1.055-45.846-.374-37.013-3.486-60.326-24.557-71.661-59.379-5.416-16.636-6.448-33.91-6.437-51.302.053-90 .353-180-.148-269.995-.183-32.793-1.973-65.595-3.737-98.354-.992-18.416-5.925-35.982-15.042-52.271-11.685-20.877-29.547-32.446-52.964-35.62-46.486-6.3-86.415 6.878-119.632 40.31-9.287 9.348-13.674 21.114-17.978 32.96-9.542 26.263-15.083 53.522-16.896 81.298-1.995 30.56-3.192 61.217-3.406 91.841-.504 71.995-.154 143.996-.296 215.994-.032 16.038-2.018 31.851-7.193 47.168-12.086 35.772-40.457 57.325-78.19 57.96-13.38.225-27.163-.39-40.13-3.37-29.512-6.782-45.738-27.717-52.807-55.966-2.966-11.85-3.583-24.288-5.321-36.908z"/>
</svg>
